<?xml version="1.0" encoding="UTF-8"?>
<svg id="Layer_1" xmlns="http://www.w3.org/2000/svg" version="1.1" xmlns:xlink="http://www.w3.org/1999/xlink" viewBox="0 0 256 256">
  <!-- Generator: Adobe Illustrator 29.5.1, SVG Export Plug-In . SVG Version: 2.1.0 Build 141)  -->
  <defs>
    <style>
      .st0 {
        fill: #fff;
      }

      .st1 {
        opacity: .5;
      }

      .st2 {
        fill: url(#linear-gradient);
      }
    </style>
    <linearGradient id="linear-gradient" x1="48.3" y1="267" x2="208.3" y2="-10.3" gradientUnits="userSpaceOnUse">
      <stop offset="0" stop-color="#4b00d1"/>
      <stop offset="0" stop-color="#5202d3"/>
      <stop offset=".2" stop-color="#700bdb"/>
      <stop offset=".3" stop-color="#8612e2"/>
      <stop offset=".4" stop-color="#9316e5"/>
      <stop offset=".5" stop-color="#9818e7"/>
      <stop offset="1" stop-color="#df7f4f"/>
    </linearGradient>
  </defs>
  <path class="st2" d="M234.6,7.2H22c-8.2,0-14.9,6.7-14.9,14.9v212.5c0,8.2,6.7,14.9,14.9,14.9h212.5c8.2,0,14.9-6.7,14.9-14.9V22.1c0-8.2-6.7-14.9-14.9-14.9ZM194.4,171.4v-.4c-1.1,17.4-7.8,31.2-19.9,41.5-12.4,10.3-26.9,15.6-44,15.6h0c-1.3,0-2.3-1.1-2.3-2.4v-42.2c0-1.3,1-2.4,2.3-2.4,1,0,2.1,0,3.2-.2,8.2-1.1,12.4-5.7,13.1-13.8.7-6.7-3.2-12-11.2-15.5,0,0-.2,0-.2,0l-5.6-1.8c-1-.3-1.6-1.2-1.6-2.3v-47.9c.2,0,.4.1.6.2h-.4l20.6,6.7c7.8,2.5,14.9,6,20.9,11,18.1,14.5,26.2,32.6,24.5,53.9ZM199.7,75.3l-43.8,24.6c-1.1.6-2.6.2-3.2-.9-6.1-11-14-16-23.8-14.9-.2,0-.5,0-.7.1V30.9c0-1.3,1-2.4,2.3-2.4.1,0,.3,0,.4,0,14.5,0,28.6,4.6,41.4,13.3,11.4,8.2,20.9,18.3,28.2,30.2.7,1.1.3,2.6-.9,3.3Z"/>
  <g class="st1">
    <path class="st0" d="M234.3,10.2c6.6,0,11.9,5.3,11.9,11.9v212.5c0,6.6-5.3,11.9-11.9,11.9H21.7c-6.6,0-11.9-5.3-11.9-11.9V22.1c0-6.6,5.3-11.9,11.9-11.9h212.5M234.3,7.2H21.7c-8.2,0-14.9,6.7-14.9,14.9v212.5c0,8.2,6.7,14.9,14.9,14.9h212.5c8.2,0,14.9-6.7,14.9-14.9V22.1c0-8.2-6.7-14.9-14.9-14.9h0Z"/>
  </g>
</svg>